<svg xmlns="http://www.w3.org/2000/svg" width="155.813" height="55" viewBox="0 0 155.813 55">
    <g id="Groupe_3911" data-name="Groupe 3911" transform="translate(-132.187 -23)">
        <text id="retail" transform="translate(201 46)" fill="#0070ad" font-size="25" font-family="Ubuntu-Bold, Ubuntu" font-weight="700"><tspan x="0" y="0">Market</tspan><tspan x="0" y="27">Pulse</tspan></text>
        <g id="Capgemini-Logo-2017" transform="translate(13.852 24.905)">
            <path id="Tracé_1173" data-name="Tracé 1173" d="M174.083,31.815a12.137,12.137,0,0,0,12.09-12.082c-.471-2.862-1.474-8.157-8.9-8.157-8.123,0-10.818,11.355-17.432,18.673-.537,4.163-4.473,7.888-9.395,8.512,1.208,1.263,3.887,1.942,7.086,1.942,5.859,0,12.952-1.763,16.663-5.426-4.949.064-8.134-3.117-8.449-7.526a10.192,10.192,0,0,0,8.341,4.065" transform="translate(-13.56 9.487)" fill="#12abdb" fill-rule="evenodd"/>
            <path id="Tracé_1174" data-name="Tracé 1174" d="M172.6,28.737c-.147-7.619-3.774-14.048-9.362-19.179A50.363,50.363,0,0,0,148.667.523Q148.03.254,147.385,0h0c-6.509,7.8-29.047,13.616-29.047,29.964A16.139,16.139,0,0,0,128.3,44.73a14.909,14.909,0,0,0,10.312.215,17.933,17.933,0,0,0,7.663-5.211c6.62-7.319,9.313-18.67,17.434-18.67,7.431,0,8.432,5.29,8.907,8.154,0-.007,0-.207-.013-.48" transform="translate(0 0)" fill="#0070ad" fill-rule="evenodd"/>
        </g>
    </g>
</svg>